<?xml version="1.0" encoding="UTF-8"?>
<svg width="300px" height="200px" viewBox="0 0 450.51938 306.75638" xmlns="http://www.w3.org/2000/svg" xmlns:xlink="http://www.w3.org/1999/xlink">
 <defs>
  <linearGradient id="a">
   <stop offset="0"/>
   <stop stop-opacity="0" offset="1"/>
  </linearGradient>
  <linearGradient id="b">
   <stop offset="0"/>
   <stop stop-color="#f8b500" offset="1"/>
  </linearGradient>
  <linearGradient id="i" x1="507.54" x2="505.22" y1="695.01" y2="435.03" gradientTransform="matrix(1 0 0 -1 0 1171.2)" gradientUnits="userSpaceOnUse" xlink:href="#a"/>
  <linearGradient id="h" x1="507.54" x2="505.22" y1="701.01" y2="441.03" gradientUnits="userSpaceOnUse" xlink:href="#a"/>
  <linearGradient id="g" x1="507.54" x2="505.22" y1="695.01" y2="435.03" gradientTransform="matrix(1 0 0 -1 0 1175.2)" gradientUnits="userSpaceOnUse" xlink:href="#a"/>
  <linearGradient id="f" x1="507.54" x2="505.22" y1="699.01" y2="439.03" gradientUnits="userSpaceOnUse" xlink:href="#a"/>
  <radialGradient id="c" cx="518.93" cy="498.97" r="218.5" gradientTransform="matrix(.0068182 .79641 -.90853 .0077781 968.72 124.34)" gradientUnits="userSpaceOnUse">
   <stop offset="0"/>
   <stop stop-color="#fc3c3c" offset="1"/>
  </radialGradient>
  <radialGradient id="e" cx="488.89" cy="588.71" r="219.2" gradientTransform="matrix(-.0080035 1.2096 -1.5872 -.010502 1429.2 7.1997)" gradientUnits="userSpaceOnUse" xlink:href="#b"/>
  <radialGradient id="d" cx="459.33" cy="604.53" r="218.5" gradientTransform="matrix(-2.4718e-8 .47921 -.76138 -2.2834e-8 965.49 426.43)" gradientUnits="userSpaceOnUse" xlink:href="#b"/>
 </defs>
 <g transform="matrix(.92625 -.16332 .16332 .92625 -341.86 -311.59)">
  <path d="m303.87 468.43h414.41a12 12 0 0 1 12 12v228.54a12 12 0 0 1 -12 12h-414.41a12 12 0 0 1 -12 -12v-228.54a12 12 0 0 1 12 -12" fill="url(#e)"/>
  <path d="m297.87 462.43h414.41a12 12 0 0 1 12 12v228.54a12 12 0 0 1 -12 12h-414.41a12 12 0 0 1 -12 -12v-228.54a12 12 0 0 1 12 -12" fill="#f4eed7" stroke="#000" stroke-width=".5"/>
  <path d="m287.47 708.86c-1.4331-5.9606 0.14236-12.486 4.8125-17.156l200.03-200.03c7.1471-7.1471 18.665-7.1471 25.812 0l200 200.03c4.6701 4.6701 6.2768 11.196 4.8438 17.156h-435.5z" fill="url(#d)" stroke="url(#i)" stroke-width=".47991"/>
  <path d="m287.47 468.31c-1.4331 5.9606 0.14236 12.486 4.8125 17.156l200.03 200.03c7.1471 7.1471 18.665 7.1471 25.812 0l200-200.03c4.6701-4.6701 6.2768-11.196 4.8438-17.156h-435.5z" fill="url(#c)" stroke="url(#h)" stroke-width=".47991"/>
  <path d="m287.47 712.86c-1.4331-5.9606 0.14236-12.486 4.8125-17.156l200.03-200.03c7.1471-7.1471 18.665-7.1471 25.812 0l200 200.03c4.6701 4.6701 6.2768 11.196 4.8438 17.156h-435.5z" fill="#f4eed7" stroke="url(#g)" stroke-width=".47991"/>
  <path d="m287.47 466.31c-1.4331 5.9606 0.14236 12.486 4.8125 17.156l200.03 200.03c7.1471 7.1471 18.665 7.1471 25.812 0l200-200.03c4.6701-4.6701 6.2768-11.196 4.8438-17.156h-435.5z" fill="#f4eed7" stroke="url(#f)" stroke-width=".47991"/>
 </g>
</svg>
